<svg width="843" height="843" viewBox="0 0 843 843" fill="none" xmlns="http://www.w3.org/2000/svg">
<path d="M96.4138 661.952C96.4138 661.952 41.2883 532.188 111.006 434.121C180.724 336.055 138.203 249.122 260.613 162.574C417.953 51.332 569.713 161.089 614.968 235.504C660.224 309.919 813.937 271.932 769.264 483.675C734.61 647.928 760.469 655.134 760.469 655.134L96.4138 661.952Z" fill="#F1EEFD"/>
<path d="M129.628 626.848C129.628 626.848 31.7996 575.739 55.3716 460.814C78.9435 345.89 174.944 318.619 214.425 327.055C288.424 342.868 167.526 389.525 138.646 309.443C102.411 208.965 231.609 132.891 351.374 152.578C428.345 165.231 465.499 202.077 533.921 225.229C602.098 248.299 630.692 217.401 603.529 199.494C577.745 182.494 484.128 210.229 516.272 248.242C560.285 300.29 666.354 219.649 748.562 309.443C830.77 399.238 759.403 512.128 696.203 521.542C633.004 530.955 660.715 440.238 759.403 512.129C858.091 584.02 733.434 661.956 733.434 661.956" stroke="#C3C8FF" stroke-miterlimit="10"/>
<path d="M801.374 669.141H53.5575C49.587 669.141 46.3701 665.923 46.3701 661.954C46.3701 657.983 49.5887 654.767 53.5575 654.767H808.562V661.954C808.562 665.923 805.343 669.141 801.374 669.141Z" fill="#6876EB"/>
<path d="M322.296 669.141H53.5575C49.587 669.141 46.3701 665.923 46.3701 661.954V654.767H329.485V661.954C329.485 665.923 326.266 669.141 322.296 669.141Z" fill="#1C145E"/>
<path d="M434.014 380.749C401.99 442.288 366.007 467.359 366.007 467.359L397.082 516.971L451.346 460.581L434.014 380.749Z" fill="#1C145E"/>
<path d="M513.416 366.061L434.013 380.749C428.984 530.977 427.099 654.746 427.099 654.746H569.623C569.623 654.746 573.759 424.703 550.831 374.511L513.416 366.061Z" fill="#1C145E"/>
<path d="M504.197 442.617L542.88 439.344" stroke="#6876EB" stroke-width="4" stroke-miterlimit="10"/>
<path d="M486.44 410.33C486.44 410.33 510.993 577.88 489.63 645.674" stroke="#6876EB" stroke-miterlimit="10"/>
<path d="M460.731 494.257C460.731 494.257 484.447 503.803 515.193 504.813C545.939 505.823 526.809 522.183 481.23 519.08" stroke="#6876EB" stroke-miterlimit="10"/>
<path d="M466.843 359.952L486.44 412.016L513.416 366.061L495.637 337.006L466.843 359.952Z" fill="#E9A394"/>
<path d="M486.44 412.016L523.021 401.917L513.416 366.061L486.44 412.016Z" fill="#6876EB"/>
<path d="M471.198 371.521L451.345 393.696L486.44 412.016L471.198 371.521Z" fill="#6876EB"/>
<path d="M397.082 516.971C397.082 516.971 408.676 492.792 383.781 461.65C369.976 444.381 363.614 414.581 363.614 414.581L342.873 417.735L361.866 516.973H397.082V516.971Z" fill="#E9A394"/>
<path d="M338.633 383.465L330.141 391.184L341.494 401.205L305.943 400.6L305.181 412.798L342.872 417.735L363.615 414.58L338.633 383.465Z" fill="#E9A394"/>
<path d="M344.846 402.463L310.737 388.394L308.535 394.453L337.004 406.417L344.846 402.463Z" fill="#E9A394"/>
<path d="M550.833 374.511C550.833 374.511 596.653 400.6 611.123 498.324L557.963 511.151L550.833 374.511Z" fill="#1C145E"/>
<path d="M451.319 296.33L434.013 340.611L447.247 344.682L451.319 369.623L493.566 359.952L499.673 292.258L451.319 296.33Z" fill="#E9A394"/>
<path d="M479.514 306.852H447.207L450.73 297.306L479.514 295.525V306.852Z" fill="#E37A82"/>
<path d="M496.395 327.053C496.395 327.053 475.784 322.79 475.784 301.467C475.784 301.467 445.202 305.629 434.644 289.029C422.139 269.365 441.25 246.768 457.032 251.359C457.032 251.359 447.087 261.217 462.192 262.375C472.963 263.201 492.648 248.87 499.675 262.731C499.675 262.731 553.893 275.115 513.417 325.632L496.395 327.053Z" fill="#16005C"/>
<path d="M475.782 299.781C475.782 299.781 434.902 307.679 426.352 278.363C421.353 261.225 438.532 251.465 438.532 251.465" stroke="#16005C" stroke-width="2" stroke-miterlimit="10"/>
<path d="M458.484 339.199C467.007 339.199 473.916 332.29 473.916 323.767C473.916 315.245 467.007 308.335 458.484 308.335C449.961 308.335 443.052 315.245 443.052 323.767C443.052 332.29 449.961 339.199 458.484 339.199Z" stroke="#16005C" stroke-width="0.5" stroke-miterlimit="10"/>
<path d="M473.086 318.773L495.065 319.977" stroke="#16005C" stroke-width="0.5" stroke-miterlimit="10"/>
<path d="M523.021 330.94C523.021 340.498 510.216 348.245 500.658 348.245C491.1 348.245 488.411 340.496 488.411 330.94C488.411 321.384 496.16 313.635 505.716 313.635C515.272 313.635 523.021 321.384 523.021 330.94Z" fill="#E9A394"/>
<path d="M604.778 499.853V579.655H564.987L561.676 510.254L604.778 499.853Z" fill="#E9A394"/>
<path d="M430.915 481.813L432.585 426.209L406.81 506.864L430.915 481.813Z" fill="#1C145C"/>
<path d="M468.892 365.248L493.566 359.952L473.338 377.205L468.892 365.248Z" fill="#E37A82"/>
<path d="M454.299 330.939C455.931 330.939 457.253 328.181 457.253 324.779C457.253 321.376 455.931 318.618 454.299 318.618C452.668 318.618 451.345 321.376 451.345 324.779C451.345 328.181 452.668 330.939 454.299 330.939Z" fill="#16005C"/>
<path d="M462.322 309.795C462.322 301.541 455.75 307.098 455.75 307.098L462.322 309.795Z" fill="#16005C"/>
<path d="M455.748 346.341L465.147 343.839C465.147 343.839 469.175 378.702 455.748 346.341Z" fill="white"/>
<path d="M253.195 502.606C253.195 502.606 316.611 492.794 317.857 603.378C318.059 621.324 329.485 654.764 329.485 654.764H272.014L253.195 502.606Z" fill="#5321D7"/>
<path d="M186.886 492.794L148.559 501.841L160.253 654.765H309.383C309.383 654.765 304.38 533.772 248.142 497.474L186.886 492.794Z" fill="#6A3FDC"/>
<path d="M148.559 501.841C109.054 510.851 118.302 541.172 125.929 603.436C106.211 619.45 125.128 626.657 125.128 626.657C103.473 649.612 130.488 654.765 130.488 654.765H202.605C202.605 654.765 188.09 492.824 148.559 501.841Z" fill="#6A3FDC"/>
<path d="M198.316 619.444L181.009 540" stroke="#5321D7" stroke-miterlimit="10"/>
<path d="M130.486 654.765C130.486 654.765 142.663 626.809 181.146 612.755C213.053 601.103 259.727 631.351 289.604 602.608L295.138 634.969L202.603 654.765H130.486Z" fill="#E9A394"/>
<path d="M257.344 414.034L285.875 457.462L267.567 463.997L264.402 499.29L209.381 480.174L214.566 408.386L257.344 414.034Z" fill="#E9A394"/>
<path d="M215.011 459.652L186.886 492.794L222.953 536.994L239.22 485.369L215.011 459.652Z" fill="#E37A82"/>
<path d="M224.415 439.132L264.66 425.17L257.345 414.034L217.589 418.172L224.415 439.132Z" fill="#E37A82"/>
<path d="M220.94 454.345C220.94 454.345 233.125 478.739 224.648 431.715C224.648 431.715 236.21 433.013 245.266 417.753C245.266 417.753 242.452 442.62 269.015 417.753C295.578 392.885 261.809 373.429 220.546 380.749C184.781 387.095 148.99 407.302 201.3 475.809L220.94 454.345Z" fill="#16005C"/>
<path d="M214.426 464.044C211.681 467.725 206.965 471.065 202.062 471.78C192.256 473.208 182.68 465.467 181.252 455.662C179.824 445.856 184.777 440.764 194.581 439.336C200.093 438.533 206.474 440.167 211.261 443.494C212.708 445.296 214.426 464.044 214.426 464.044Z" fill="#E9A394"/>
<path d="M253.241 450.49C254.709 450.091 255.162 447.051 254.253 443.7C253.343 440.349 251.416 437.956 249.947 438.354C248.479 438.753 248.026 441.792 248.935 445.143C249.845 448.494 251.772 450.888 253.241 450.49Z" fill="#16005C"/>
<path d="M242.086 435.897C242.086 435.897 240.656 427.832 248.142 431.715L242.086 435.897Z" fill="#16005C"/>
<path d="M182.383 494.15L188.913 486.65L186.517 481.092L201.298 475.811L243.703 497.136L245.264 513.417L238.088 511.15L226.374 554.814L182.383 494.15Z" fill="#6A3FDC"/>
<path d="M220.674 504.812L245.264 513.417L243.703 497.135" stroke="#5321D7" stroke-miterlimit="10"/>
<path d="M224.648 431.715C224.648 431.715 229.595 460.505 236.829 466.425C239.205 468.369 243.701 463.424 264.402 463.009C277.059 462.756 277.049 506.936 260.253 505.67C243.457 504.404 217.932 493.932 214.107 461.73C210.753 433.479 224.648 431.715 224.648 431.715Z" fill="#16005C"/>
<path d="M245.264 471.78C245.264 471.78 249.533 479.729 257.946 474.344" stroke="#C4C6C5" stroke-miterlimit="10"/>
<path d="M341.25 636.583H199.68V647.072C199.68 651.32 203.124 654.763 207.371 654.763H341.25C345.498 654.763 348.941 651.319 348.941 647.072V644.275C348.943 640.027 345.498 636.583 341.25 636.583Z" fill="#1C145E"/>
<path d="M456.226 531.436H291.545C286.65 531.436 282.518 535.074 281.897 539.928L268.63 643.807C267.888 649.621 272.417 654.765 278.278 654.765H442.959C447.854 654.765 451.986 651.126 452.607 646.272L465.874 542.393C466.616 536.58 462.087 531.436 456.226 531.436Z" fill="#1C145E"/>
<path d="M464.196 531.436H299.514C294.62 531.436 290.488 535.074 289.867 539.928L276.6 643.807C275.858 649.621 280.387 654.765 286.247 654.765H450.929C455.823 654.765 459.956 651.126 460.576 646.272L473.843 542.393C474.585 536.58 470.057 531.436 464.196 531.436Z" fill="#6876EB"/>
<path d="M385.819 604.262C392.677 597.754 393.488 587.475 387.63 581.301C381.772 575.127 371.464 575.398 364.606 581.905C357.748 588.412 356.937 598.692 362.795 604.865C368.653 611.039 378.961 610.769 385.819 604.262Z" fill="white"/>
<path d="M460.605 653.885H255.619" stroke="#1C145E" stroke-miterlimit="10"/>
<path d="M551.197 514.867L619.246 516.157L603.819 432.914L567.636 437.011C567.636 437.011 551.337 461.067 564.208 479.771C578.73 500.875 549.702 501.662 551.197 514.867Z" fill="#16005C"/>
<path d="M567.634 437.011C567.634 437.011 551.335 461.067 564.206 479.772C578.73 500.877 549.702 501.663 551.197 514.867" stroke="#7079F1" stroke-width="2" stroke-miterlimit="10"/>
<path d="M581.21 504.812C581.21 504.812 550.248 535.194 533.922 649.688H568.388L581.21 504.812Z" fill="#7079F1"/>
<path d="M663.038 496.349L649.564 649.688H549.462L561.924 591.124C561.924 591.124 523.813 571.241 581.21 504.812L595.475 497.475L657.452 492.794L663.038 496.349Z" fill="#C3C8FF"/>
<path d="M581.21 573.439C581.21 573.439 575.209 583.717 580.979 591.968L572.483 649.688" stroke="#7079F1" stroke-miterlimit="10"/>
<path d="M567.219 591.388L625.199 593.099" stroke="#7079F1" stroke-miterlimit="10"/>
<path d="M636.63 620.253L630.498 546.499" stroke="#7079F1" stroke-miterlimit="10"/>
<path d="M663.038 496.348C663.038 496.348 668.566 503.303 674.966 519.429C684.04 542.297 694.863 583.609 694.153 649.686H649.563L663.038 496.348Z" fill="#C3C8FF"/>
<path d="M694.153 654.746C694.153 654.746 671.874 603.795 615.837 618.376C554.65 634.297 531.93 631.321 531.93 631.321L527.292 654.746H694.153Z" fill="#E9A394"/>
<path d="M635.828 607.668L615.945 612.114L661.108 654.746H703.677C703.677 654.746 685.33 610.259 635.828 607.668Z" fill="#7079F1"/>
<path d="M637.057 620.891L646.527 617.998" stroke="#C3C8FF" stroke-miterlimit="10"/>
<path d="M531.93 631.321L502.856 625.311L482.016 654.746H527.291L531.93 631.321Z" fill="#E9A394"/>
<path d="M581.21 573.439L635.236 519.413L625.199 514.673L663.038 496.348L645.662 485.292H605.222L581.21 515.306L587.844 516.971L581.21 521.625V573.439Z" fill="#7079F1"/>
<path d="M618.981 503.657L636.63 491.461L617.579 448.86L588.048 467.408L596.367 502.745L581.21 573.439L618.981 503.657Z" fill="#E9A394"/>
<path d="M590.424 477.501L611.148 466.693L592.646 486.935L590.424 477.501Z" fill="#E37A82"/>
<path d="M552.565 415.827L543.516 465.978H557.09L572.331 486.935L611.148 466.693L584 406.205L552.565 415.827Z" fill="#E9A394"/>
<path d="M550.371 427.988L549.462 433.498L585.261 428.613L584.713 421.753L550.371 427.988Z" fill="#E37A82"/>
<path d="M651.511 412.016C642.55 387.724 631.593 378.359 631.593 378.359C609.633 356.537 572.094 380.751 572.094 380.751C523.989 369.108 543.516 428.831 543.516 428.831L582.692 424.026C588.17 456.889 607.759 440.248 607.759 440.248L616.896 456.727C616.896 456.727 607.679 464.874 617.289 478.841C625.201 490.341 606.254 494.259 611.15 506.501L686.873 490.806C686.873 440.982 667.707 455.92 651.511 412.016Z" fill="#16005C"/>
<path d="M540.446 429.217C540.446 429.217 533.518 395.118 546.244 384.022C552.88 378.236 573.778 380.751 573.778 380.751" stroke="#7079F1" stroke-width="2" stroke-miterlimit="10"/>
<path d="M691.83 489.37C691.83 489.37 697.878 466.693 664.928 440.98" stroke="#16005C" stroke-width="2" stroke-miterlimit="10"/>
<path d="M608.886 458.835C617.894 458.835 625.198 451.532 625.198 442.523C625.198 433.514 617.894 426.211 608.886 426.211C599.877 426.211 592.573 433.514 592.573 442.523C592.573 451.532 599.877 458.835 608.886 458.835Z" fill="#E9A394"/>
<path d="M567.219 464.134L577.332 461.65C577.332 461.65 580.881 490.493 567.219 464.134Z" fill="white"/>
<path d="M558.798 447.09C558.798 447.09 562.016 427.473 569.059 447.09" stroke="#1C145E" stroke-width="0.5" stroke-miterlimit="10"/>
<path d="M561.283 432.167C561.283 432.167 565.203 425.528 569.848 432.167H561.283Z" fill="#16005C"/>
<path d="M409.116 255.439C403.249 239.122 384.803 230.952 368.634 237.923C354.719 243.924 347.343 259.71 351.659 274.236C354.072 282.358 359.521 288.64 366.344 292.305C372.643 295.687 378.048 300.514 382.011 306.464L383.154 308.181L405.808 300.035L405.598 297.994C404.851 290.764 406.115 283.531 408.788 276.772C411.394 270.175 411.704 262.638 409.116 255.439Z" fill="#C3C8FF"/>
<path d="M409.116 255.439C403.249 239.122 384.803 230.952 368.634 237.923C354.719 243.924 347.343 259.71 351.659 274.236C354.072 282.358 359.521 288.64 366.344 292.305C372.643 295.687 378.048 300.514 382.011 306.464L383.154 308.181L405.808 300.035L405.598 297.994C404.851 290.764 406.115 283.531 408.788 276.772C411.394 270.175 411.704 262.638 409.116 255.439Z" fill="#C3C8FF"/>
<path d="M388.336 301.499L370.278 276.03C370.278 276.03 370.606 270.873 376.275 271.691C381.943 272.508 385.327 281.454 381.282 280.011C377.237 278.568 375.806 268.052 383.46 266.449C391.113 264.845 393.671 282.233 389.442 278.883C385.214 275.533 386.106 264.463 394.301 264.372L399.11 301.104" stroke="white" stroke-miterlimit="10"/>
<path d="M405.283 317.444L394.644 321.269C390.599 322.724 386.14 320.623 384.686 316.579L382.437 310.324C380.982 306.279 383.083 301.819 387.128 300.366L397.766 296.541C401.811 295.085 406.269 297.186 407.724 301.231L409.973 307.486C411.426 311.531 409.327 315.989 405.283 317.444Z" fill="#16005C"/>
<path d="M407.787 290.877L375.749 302.395L381.372 318.035L413.41 306.517L407.787 290.877Z" fill="#6876EB"/>
<path d="M379.891 227.709L376.695 209.384" stroke="#C3C8FF" stroke-miterlimit="10"/>
<path d="M356.803 238.625L341.498 223.675" stroke="#C3C8FF" stroke-miterlimit="10"/>
<path d="M340.852 265.783L323.388 267.032" stroke="#C3C8FF" stroke-miterlimit="10"/>
<path d="M405.063 237.751L412.923 223.176" stroke="#C3C8FF" stroke-miterlimit="10"/>
<path d="M650.951 372.375H759.24C763.005 372.375 766.611 369.323 767.294 365.557L778.484 303.821C779.167 300.056 776.666 297.002 772.901 297.002H664.613C660.848 297.002 657.242 300.054 656.559 303.821L645.369 365.557C644.688 369.322 647.186 372.375 650.951 372.375Z" fill="#1C145C"/>
<path d="M737.765 339.485C740.926 336.598 741.535 332.119 739.126 329.481C736.716 326.843 732.2 327.046 729.039 329.933C725.878 332.82 725.269 337.299 727.679 339.937C730.088 342.575 734.604 342.373 737.765 339.485Z" fill="white"/>
<path d="M716.256 339.485C719.417 336.598 720.026 332.118 717.616 329.481C715.207 326.843 710.691 327.045 707.53 329.933C704.369 332.82 703.76 337.299 706.169 339.937C708.579 342.575 713.095 342.372 716.256 339.485Z" fill="white"/>
<path d="M694.746 339.484C697.907 336.597 698.517 332.118 696.107 329.48C693.698 326.842 689.182 327.045 686.021 329.932C682.86 332.819 682.251 337.299 684.66 339.936C687.07 342.574 691.585 342.372 694.746 339.484Z" fill="white"/>
<path d="M709.231 368.315L671.605 390.677L678.349 366.552L709.231 368.315Z" fill="#1C145C"/>
<path d="M302.099 363.223H193.811C190.046 363.223 186.44 360.172 185.757 356.405L174.567 294.669C173.884 290.904 176.384 287.851 180.149 287.851H288.438C292.203 287.851 295.809 290.902 296.492 294.669L307.682 356.405C308.365 360.17 305.866 363.223 302.099 363.223Z" fill="#C3C8FF"/>
<path d="M225.32 330.757C227.73 328.119 227.12 323.64 223.959 320.752C220.798 317.865 216.283 317.663 213.873 320.3C211.464 322.938 212.073 327.417 215.234 330.305C218.395 333.192 222.91 333.394 225.32 330.757Z" fill="white"/>
<path d="M246.829 330.757C249.238 328.119 248.629 323.64 245.468 320.752C242.307 317.865 237.791 317.663 235.382 320.3C232.972 322.938 233.582 327.417 236.743 330.305C239.904 333.192 244.419 333.394 246.829 330.757Z" fill="white"/>
<path d="M268.336 330.758C270.746 328.12 270.137 323.641 266.976 320.754C263.815 317.866 259.299 317.664 256.889 320.302C254.48 322.94 255.089 327.419 258.25 330.306C261.411 333.194 265.927 333.396 268.336 330.758Z" fill="white"/>
<path d="M263.47 359.163L269.41 380.749L293.432 357.653L263.47 359.163Z" fill="#C3C8FF"/>
</svg>
